<svg width="130" height="36" viewBox="0 0 130 36" fill="none" xmlns="http://www.w3.org/2000/svg">
<g id="Group 3">
<g id="Group">
<g id="Group_2">
<g id="Group_3">
<path id="Vector" d="M62.9052 0.609985C74.292 0.609985 79.9854 6.32266 79.9854 17.748C79.9854 29.1929 74.292 34.9121 62.9052 34.9121H48.7954V0.609985H62.9052ZM59.2663 26.6953H62.7319C67.101 26.6953 69.2917 24.2172 69.2917 19.261V16.2612C69.2917 11.305 67.101 8.82685 62.7319 8.82685H59.2663V26.6953Z" fill="white"/>
</g>
</g>
</g>
<g id="Group_4">
<g id="Group_5">
<g id="Group_6">
<path id="Vector_2" d="M86.553 0.609985H112.891V8.82685H97.0239V14.7221H110.663V22.5999H97.0239V34.9121H86.553V0.609985Z" fill="white"/>
</g>
</g>
</g>
<g id="Group_7">
<g id="Group_8">
<g id="Group_9">
<path id="Vector_3" d="M119.554 34.9121V0.609985H130V34.9121H119.554Z" fill="white"/>
</g>
</g>
</g>
<g id="Group 1">
<g id="Clip path group">
<mask id="mask0_186_134" style="mask-type:luminance" maskUnits="userSpaceOnUse" x="0" y="16" width="7" height="8">
<g id="18238f7b03">
<path id="Vector_4" d="M0 16.3992H6.8837V23.5787H0V16.3992Z" fill="white"/>
</g>
</mask>
<g mask="url(#mask0_186_134)">
<g id="Group_10">
<path id="Vector_5" fill-rule="evenodd" clip-rule="evenodd" d="M3.01151 16.7778C1.36111 16.7778 0.0351562 18.103 0.0351562 19.7366C0.0351562 21.3772 1.36111 22.6953 3.01151 22.6953C4.65485 22.6953 5.98786 21.3772 5.98786 19.7366C5.98786 18.103 4.65485 16.7778 3.01151 16.7778Z" fill="#2490EA"/>
</g>
</g>
</g>
<g id="Clip path group_2">
<mask id="mask1_186_134" style="mask-type:luminance" maskUnits="userSpaceOnUse" x="10" y="0" width="34" height="36">
<g id="d345f580f7">
<path id="Vector_6" d="M10.4939 0.609985H43.3325V35.61H10.4939V0.609985Z" fill="white"/>
</g>
</mask>
<g mask="url(#mask1_186_134)">
<g id="Group_11">
<path id="Vector_7" d="M12.3495 15.4115C12.7021 17.4657 13.1888 19.3027 13.8306 20.9713H18.1541C17.3571 19.3447 16.7788 17.5288 16.3697 15.4115H12.3495ZM24.5511 28.5154C22.4 26.7626 20.7214 25.0659 19.4589 23.2009H14.8321C14.8956 23.3271 14.9662 23.4603 15.0437 23.5865C16.017 25.3674 17.216 26.98 18.6901 28.5294H24.5511V28.5154ZM27.4993 4.55809C27.5204 4.55809 33.8751 4.42488 39.3482 7.97956C39.0873 14.1074 38.2621 18.3071 36.4072 21.7075C34.6157 24.9958 31.7804 27.6601 27.4711 30.745H21.0388C22.5692 32.0701 24.3254 33.3952 26.3426 34.7834L27.4711 35.5687L28.5995 34.7834C34.0585 31.0114 37.6062 27.8003 39.9054 23.6006C42.1835 19.4219 43.1216 14.4159 43.3473 7.04707L43.3825 6.01642L42.5503 5.38541C36.0475 0.603764 28.0212 0.610774 27.4711 0.617785C26.9209 0.610774 18.8947 0.603764 12.3918 5.38541L11.5596 5.99539L11.5948 7.03305C11.6654 9.29767 11.8064 11.3379 12.0321 13.2029H16.017C15.8125 11.6254 15.6785 9.89363 15.5939 7.96554C21.067 4.41787 27.4287 4.55108 27.4428 4.55108H27.4993V4.55809Z" fill="#2490EA"/>
</g>
</g>
</g>
<path id="Vector_8" fill-rule="evenodd" clip-rule="evenodd" d="M6.05106 9.00201C4.40067 9.00201 3.07471 10.3341 3.07471 11.9678C3.07471 13.6084 4.40067 14.9265 6.05106 14.9265C7.6944 14.9265 9.02741 13.6084 9.02741 11.9678C9.03446 10.3341 7.6944 9.00201 6.05106 9.00201Z" fill="#2490EA"/>
<path id="Vector_9" fill-rule="evenodd" clip-rule="evenodd" d="M7.53809 10.9795H22.0601V13.202H7.53809V10.9795Z" fill="#2490EA"/>
<path id="Vector_10" fill-rule="evenodd" clip-rule="evenodd" d="M4.49976 18.7474H21.9629V20.97H4.49976V18.7474Z" fill="#2490EA"/>
<g id="Clip path group_3">
<mask id="mask2_186_134" style="mask-type:luminance" maskUnits="userSpaceOnUse" x="8" y="28" width="8" height="8">
<g id="3feb6b8e19">
<path id="Vector_11" d="M8.68945 28.9629H15.9117V35.6096H8.68945V28.9629Z" fill="white"/>
</g>
</mask>
<g mask="url(#mask2_186_134)">
<g id="Group_12">
<path id="Vector_12" fill-rule="evenodd" clip-rule="evenodd" d="M12.843 28.9909C11.1997 28.9909 9.8667 30.3161 9.8667 31.9497C9.8667 33.5903 11.1997 34.9084 12.843 34.9084C14.4934 34.9084 15.8194 33.5903 15.8194 31.9497C15.8194 30.3231 14.4934 28.9909 12.843 28.9909Z" fill="#2490EA"/>
</g>
</g>
</g>
<path id="Vector_13" fill-rule="evenodd" clip-rule="evenodd" d="M12.9492 30.7297H27.4713V32.9523H12.9492V30.7297Z" fill="#2490EA"/>
<path id="Vector_14" fill-rule="evenodd" clip-rule="evenodd" d="M27.4712 9.64719C29.4602 9.64719 31.0753 11.2457 31.0753 13.2299C31.0753 14.6602 30.2289 15.8872 29.0088 16.4621L30.1161 22.4006H24.8193L25.9266 16.4621C24.7065 15.8872 23.8601 14.6602 23.8601 13.2299C23.8742 11.2598 25.4823 9.64719 27.4712 9.64719Z" fill="white"/>
</g>
</g>
</svg>
